<?xml version="1.0" encoding="UTF-8" standalone="no" ?>
<!DOCTYPE svg PUBLIC "-//W3C//DTD SVG 1.1//EN" "http://www.w3.org/Graphics/SVG/1.1/DTD/svg11.dtd">
<svg xmlns="http://www.w3.org/2000/svg" xmlns:xlink="http://www.w3.org/1999/xlink" version="1.1" width="1280" height="640" viewBox="0 0 1280 640" xml:space="preserve">
<desc>Created with Fabric.js 3.6.3</desc>
<defs>
</defs>
<g transform="matrix(1.25 0 0 1.25 640.13 320.13)"  >
<g style=""   >
		<g transform="matrix(1 0 0 1 0 0)" id="Layer_1"  >
<path style="stroke: none; stroke-width: 1; stroke-dasharray: none; stroke-linecap: butt; stroke-dashoffset: 0; stroke-linejoin: miter; stroke-miterlimit: 4; fill: rgb(255,230,80); fill-rule: nonzero; opacity: 1;"  transform=" translate(-256, -256)" d="M 510.38 250.902 c -1.601 -2.258 -36.659 -50.932 -102.314 -72.732 c -6.168 -2.048 -9.853 -8.432 -8.539 -14.797 C 413.529 95.535 388.763 40.756 387.6 38.236 c -1.569 -3.388 -5.151 -5.405 -8.81 -5.086 c -2.761 0.253 -62.522 6.185 -114.25 52.164 c -4.856 4.316 -12.223 4.316 -17.078 0 c -51.728 -45.979 -111.49 -51.911 -114.25 -52.164 c -3.699 -0.337 -7.245 1.698 -8.81 5.086 c -1.164 2.519 -25.93 57.299 -11.927 125.136 c 1.314 6.366 -2.37 12.749 -8.539 14.797 C 38.279 199.97 3.22 248.643 1.62 250.902 c -2.159 3.057 -2.159 7.143 0 10.198 c 1.601 2.258 36.659 50.932 102.314 72.732 c 6.168 2.048 9.853 8.431 8.539 14.797 c -14.002 67.837 10.764 122.617 11.927 125.136 c 1.565 3.388 5.126 5.362 8.81 5.086 c 2.761 -0.253 62.522 -6.185 114.25 -52.164 c 4.856 -4.316 12.223 -4.316 17.078 0 c 51.728 45.979 111.49 51.911 114.25 52.164 c 0.267 0.022 0.534 0.034 0.802 0.034 c 3.414 0 6.556 -1.979 8.009 -5.121 c 1.164 -2.519 25.93 -57.299 11.927 -125.136 c -1.314 -6.366 2.37 -12.749 8.539 -14.797 c 65.654 -21.8 100.713 -70.473 102.314 -72.732 C 512.539 258.043 512.539 253.957 510.38 250.902 z" stroke-linecap="round" />
</g>
		<g transform="matrix(1 0 0 1 0 0)" id="Layer_1"  >
<path style="stroke: none; stroke-width: 1; stroke-dasharray: none; stroke-linecap: butt; stroke-dashoffset: 0; stroke-linejoin: miter; stroke-miterlimit: 4; fill: rgb(255,210,80); fill-rule: nonzero; opacity: 1;"  transform=" translate(-256, -256)" d="M 408.067 333.831 c 0.129 -0.043 0.248 -0.095 0.376 -0.138 l -134.832 -77.728 l 134.062 -78.013 c -5.903 -2.199 -9.428 -8.366 -8.145 -14.579 c 0.086 -0.416 0.131 -0.817 0.214 -1.231 l -134.915 78.51 V 85.074 c -0.095 0.085 -0.193 0.156 -0.288 0.241 c -4.856 4.316 -12.223 4.316 -17.079 0 c -0.095 -0.085 -0.193 -0.156 -0.288 -0.241 v 155.65 l -134.758 -77.685 c 0.023 0.114 0.035 0.222 0.058 0.334 c 1.314 6.366 -2.37 12.749 -8.539 14.797 c -0.129 0.043 -0.248 0.095 -0.377 0.138 l 134.831 77.728 l -134.061 78.013 c 5.903 2.199 9.428 8.365 8.145 14.579 c -0.086 0.416 -0.131 0.818 -0.214 1.233 l 134.915 -78.51 v 155.577 c 0.095 -0.085 0.193 -0.156 0.288 -0.241 c 4.856 -4.317 12.223 -4.317 17.079 0 c 0.095 0.085 0.193 0.156 0.288 0.241 v -155.65 l 134.758 77.686 c -0.023 -0.114 -0.035 -0.223 -0.058 -0.337 C 398.213 342.263 401.897 335.879 408.067 333.831 z" stroke-linecap="round" />
</g>
		<g transform="matrix(1 0 0 1 0 0)" id="Layer_1"  >
<path style="stroke: none; stroke-width: 1; stroke-dasharray: none; stroke-linecap: butt; stroke-dashoffset: 0; stroke-linejoin: miter; stroke-miterlimit: 4; fill: rgb(255,240,115); fill-rule: nonzero; opacity: 1;"  transform=" translate(-256, -256)" d="M 414.897 247.173 H 271.291 l 71.804 -124.367 c 2.435 -4.224 0.991 -9.621 -3.233 -12.061 c -4.242 -2.449 -9.625 -0.991 -12.061 3.233 L 256 238.343 l -71.802 -124.365 c -2.449 -4.224 -7.844 -5.681 -12.061 -3.233 c -4.224 2.44 -5.668 7.837 -3.233 12.061 l 71.804 124.367 H 97.102 c -4.875 0 -8.828 3.953 -8.828 8.828 c 0 4.875 3.953 8.828 8.828 8.828 h 143.606 l -71.804 124.367 c -2.435 4.224 -0.991 9.621 3.233 12.061 c 1.393 0.802 2.91 1.181 4.405 1.181 c 3.052 0 6.017 -1.582 7.655 -4.414 l 71.802 -124.365 L 327.8 398.023 c 1.638 2.831 4.604 4.414 7.656 4.414 c 1.495 0 3.017 -0.38 4.405 -1.181 c 4.224 -2.44 5.668 -7.837 3.233 -12.061 l -71.803 -124.367 h 143.606 c 4.875 0 8.828 -3.953 8.828 -8.828 C 423.725 251.126 419.772 247.173 414.897 247.173 z" stroke-linecap="round" />
</g>
		<g transform="matrix(1 0 0 1 0 0)" id="Layer_1"  >
<path style="stroke: none; stroke-width: 1; stroke-dasharray: none; stroke-linecap: butt; stroke-dashoffset: 0; stroke-linejoin: miter; stroke-miterlimit: 4; fill: rgb(255,120,60); fill-rule: nonzero; opacity: 1;"  transform=" translate(-256, -256)" d="M 353.104 256.001 c 0 7.904 -18.395 13.287 -20.343 20.576 c -2.016 7.543 11.163 21.388 7.341 27.992 c -3.875 6.698 -22.488 2.176 -27.925 7.612 c -5.436 5.436 -0.915 24.049 -7.613 27.924 c -6.603 3.82 -20.447 -9.359 -27.988 -7.343 c -7.291 1.949 -12.672 20.343 -20.576 20.343 c -7.904 0 -13.287 -18.395 -20.576 -20.343 c -7.543 -2.016 -21.388 11.163 -27.992 7.341 c -6.698 -3.875 -2.176 -22.488 -7.612 -27.925 c -5.436 -5.436 -24.049 -0.915 -27.924 -7.613 c -3.82 -6.603 9.359 -20.447 7.343 -27.988 c -1.949 -7.289 -20.343 -12.671 -20.343 -20.575 c 0 -7.904 18.395 -13.287 20.343 -20.576 c 2.016 -7.543 -11.163 -21.388 -7.341 -27.992 c 3.875 -6.698 22.488 -2.176 27.925 -7.612 c 5.436 -5.436 0.915 -24.049 7.613 -27.924 c 6.603 -3.82 20.447 9.359 27.988 7.343 c 7.291 -1.95 12.672 -20.344 20.576 -20.344 c 7.904 0 13.287 18.395 20.576 20.343 c 7.543 2.016 21.388 -11.163 27.992 -7.341 c 6.698 3.875 2.176 22.488 7.612 27.925 c 5.436 5.436 24.049 0.915 27.924 7.613 c 3.82 6.603 -9.359 20.447 -7.343 27.988 C 334.709 242.715 353.104 248.097 353.104 256.001 z" stroke-linecap="round" />
</g>
		<g transform="matrix(1 0 0 1 0 0)" id="Layer_1"  >
<path style="stroke: none; stroke-width: 1; stroke-dasharray: none; stroke-linecap: butt; stroke-dashoffset: 0; stroke-linejoin: miter; stroke-miterlimit: 4; fill: rgb(255,150,60); fill-rule: nonzero; opacity: 1;"  transform=" translate(-256, -256)" d="M 260.811 209.67 l 17.182 -9.142 c 6.686 -3.558 14.787 1.12 15.049 8.689 l 0.674 19.452 c 0.118 3.405 1.921 6.529 4.811 8.334 l 16.508 10.31 c 6.423 4.011 6.423 13.366 0 17.377 l -16.508 10.31 c -2.89 1.805 -4.694 4.929 -4.811 8.334 l -0.674 19.452 c -0.263 7.569 -8.363 12.246 -15.049 8.689 l -17.182 -9.142 c -3.008 -1.6 -6.615 -1.6 -9.623 0 l -17.182 9.142 c -6.686 3.558 -14.787 -1.12 -15.049 -8.689 l -0.674 -19.452 c -0.118 -3.405 -1.921 -6.529 -4.811 -8.334 l -16.508 -10.31 c -6.423 -4.011 -6.423 -13.366 0 -17.377 l 16.508 -10.31 c 2.89 -1.805 4.694 -4.929 4.811 -8.334 l 0.674 -19.452 c 0.263 -7.569 8.363 -12.246 15.049 -8.689 l 17.182 9.142 C 254.197 211.271 257.803 211.271 260.811 209.67 z" stroke-linecap="round" />
</g>
		<g transform="matrix(1 0 0 1 0 0)" id="Layer_1"  >
<circle style="stroke: none; stroke-width: 1; stroke-dasharray: none; stroke-linecap: butt; stroke-dashoffset: 0; stroke-linejoin: miter; stroke-miterlimit: 4; fill: rgb(255,230,80); fill-rule: nonzero; opacity: 1;"  cx="0" cy="0" r="17.655" />
</g>
</g>
</g>
<g transform="matrix(1 0 0 1 165 233)"  >
<line style="stroke: rgb(0,0,0); stroke-width: 2; stroke-dasharray: none; stroke-linecap: butt; stroke-dashoffset: 0; stroke-linejoin: miter; stroke-miterlimit: 4; fill: rgb(0,0,0); fill-rule: nonzero; opacity: 1;" vector-effect="non-scaling-stroke"  x1="0" y1="0" x2="0" y2="0" />
</g>
</svg>