<?xml version="1.0" standalone="no"?>
<!DOCTYPE svg PUBLIC "-//W3C//DTD SVG 20010904//EN"
 "http://www.w3.org/TR/2001/REC-SVG-20010904/DTD/svg10.dtd">
<svg version="1.0" xmlns="http://www.w3.org/2000/svg"
 width="200.000000pt" height="200.000000pt" viewBox="0 0 200.000000 200.000000"
 preserveAspectRatio="xMidYMid meet">
<metadata>
Created by potrace 1.13, written by Peter Selinger 2001-2015
</metadata>
<g transform="translate(0.000000,200.000000) scale(0.100000,-0.100000)"
fill="#000000" stroke="none">
<path d="M1360 1871 l0 -71 33 0 c52 0 119 -39 140 -82 18 -37 18 -41 -3 -180
-40 -261 -20 -387 81 -502 l41 -46 -42 -46 c-100 -108 -121 -238 -81 -500 24
-156 22 -175 -28 -217 -33 -27 -43 -31 -103 -42 l-38 -6 0 -69 c0 -39 4 -70 8
-70 35 0 136 26 178 46 59 28 128 97 152 152 23 53 19 193 -8 321 -29 139 -31
245 -4 291 25 44 76 70 137 70 l47 0 0 70 0 69 -61 7 c-144 16 -172 108 -115
379 24 117 29 189 16 249 -27 132 -139 222 -302 243 l-48 6 0 -72z"/>
<path d="M510 1916 c-106 -30 -204 -113 -228 -194 -19 -62 -14 -176 13 -312
30 -151 31 -221 6 -277 -24 -51 -49 -66 -126 -73 l-60 -5 -3 -71 -3 -72 61 -4
c69 -5 106 -27 132 -79 25 -47 23 -124 -7 -273 -28 -139 -32 -260 -11 -319 39
-108 143 -177 304 -202 l43 -7 -3 74 -3 73 -53 6 c-58 8 -93 27 -118 64 -19
28 -17 57 11 274 15 107 16 147 8 202 -14 85 -48 161 -101 220 l-41 46 35 34
c109 105 134 251 89 510 -22 125 -20 162 12 200 32 37 78 59 128 59 l35 0 0
70 0 70 -37 -1 c-21 0 -58 -6 -83 -13z"/>
<path d="M1120 1728 c-33 -17 -57 -41 -92 -93 -49 -73 -159 -310 -197 -427
-13 -38 -26 -68 -29 -68 -4 0 -20 23 -37 51 -45 77 -96 119 -145 119 -42 0
-90 -17 -90 -33 0 -5 22 -34 50 -64 50 -54 148 -198 209 -306 18 -32 35 -57
36 -55 2 2 31 79 65 173 136 371 198 488 331 629 87 92 87 96 -5 96 -34 0 -67
-8 -96 -22z"/>
<path d="M1415 1080 c-4 -6 -20 -8 -39 -5 -30 6 -35 2 -125 -104 -52 -61 -98
-111 -102 -111 -4 0 -28 43 -54 96 -41 85 -49 95 -68 90 -12 -3 -34 -6 -49 -6
-46 0 -44 -32 10 -185 l49 -139 -108 -142 c-135 -179 -169 -236 -169 -290 0
-57 28 -92 69 -86 26 4 39 18 92 106 79 128 179 276 188 276 3 -1 38 -49 76
-108 81 -124 96 -131 133 -62 l24 45 -61 133 c-34 73 -61 137 -61 142 0 4 52
75 115 157 63 81 114 155 115 164 0 22 -26 44 -35 29z"/>
</g>
</svg>
